<svg width="174" height="110" viewBox="0 0 174 110" fill="none" xmlns="http://www.w3.org/2000/svg">
<path d="M24.975 27.755C27.045 28.205 28.635 29.105 29.745 30.455C30.885 31.775 31.455 33.485 31.455 35.585C31.455 38.285 30.45 40.37 28.44 41.84C26.46 43.28 23.52 44 19.62 44H5.13V12.5H18.72C22.23 12.5 24.945 13.205 26.865 14.615C28.815 16.025 29.79 18.02 29.79 20.6C29.79 22.34 29.355 23.825 28.485 25.055C27.645 26.255 26.475 27.155 24.975 27.755ZM8.46 15.245V26.675H18.495C21.045 26.675 23.01 26.195 24.39 25.235C25.77 24.245 26.46 22.82 26.46 20.96C26.46 19.1 25.77 17.69 24.39 16.73C23.01 15.74 21.045 15.245 18.495 15.245H8.46ZM19.575 41.255C22.395 41.255 24.525 40.775 25.965 39.815C27.405 38.855 28.125 37.355 28.125 35.315C28.125 31.385 25.275 29.42 19.575 29.42H8.46V41.255H19.575ZM58.9908 33.155H39.1908C39.3708 35.615 40.3158 37.61 42.0258 39.14C43.7358 40.64 45.8958 41.39 48.5058 41.39C49.9758 41.39 51.3258 41.135 52.5558 40.625C53.7858 40.085 54.8508 39.305 55.7508 38.285L57.5508 40.355C56.5008 41.615 55.1808 42.575 53.5908 43.235C52.0308 43.895 50.3058 44.225 48.4158 44.225C45.9858 44.225 43.8258 43.715 41.9358 42.695C40.0758 41.645 38.6208 40.205 37.5708 38.375C36.5208 36.545 35.9958 34.475 35.9958 32.165C35.9958 29.855 36.4908 27.785 37.4808 25.955C38.5008 24.125 39.8808 22.7 41.6208 21.68C43.3908 20.66 45.3708 20.15 47.5608 20.15C49.7508 20.15 51.7158 20.66 53.4558 21.68C55.1958 22.7 56.5608 24.125 57.5508 25.955C58.5408 27.755 59.0358 29.825 59.0358 32.165L58.9908 33.155ZM47.5608 22.895C45.2808 22.895 43.3608 23.63 41.8008 25.1C40.2708 26.54 39.4008 28.43 39.1908 30.77H55.9758C55.7658 28.43 54.8808 26.54 53.3208 25.1C51.7908 23.63 49.8708 22.895 47.5608 22.895ZM68.599 24.965C69.349 23.375 70.459 22.175 71.929 21.365C73.429 20.555 75.274 20.15 77.464 20.15V23.255L76.699 23.21C74.209 23.21 72.259 23.975 70.849 25.505C69.439 27.035 68.734 29.18 68.734 31.94V44H65.539V20.33H68.599V24.965ZM104.944 20.33V41.12C104.944 45.14 103.954 48.11 101.974 50.03C100.024 51.98 97.0692 52.955 93.1092 52.955C90.9192 52.955 88.8342 52.625 86.8542 51.965C84.9042 51.335 83.3142 50.45 82.0842 49.31L83.7042 46.88C84.8442 47.9 86.2242 48.695 87.8442 49.265C89.4942 49.835 91.2192 50.12 93.0192 50.12C96.0192 50.12 98.2242 49.415 99.6342 48.005C101.044 46.625 101.749 44.465 101.749 41.525V38.51C100.759 40.01 99.4542 41.15 97.8342 41.93C96.2442 42.71 94.4742 43.1 92.5242 43.1C90.3042 43.1 88.2792 42.62 86.4492 41.66C84.6492 40.67 83.2242 39.305 82.1742 37.565C81.1542 35.795 80.6442 33.8 80.6442 31.58C80.6442 29.36 81.1542 27.38 82.1742 25.64C83.2242 23.9 84.6492 22.55 86.4492 21.59C88.2492 20.63 90.2742 20.15 92.5242 20.15C94.5342 20.15 96.3492 20.555 97.9692 21.365C99.5892 22.175 100.894 23.345 101.884 24.875V20.33H104.944ZM92.8392 40.265C94.5492 40.265 96.0942 39.905 97.4742 39.185C98.8542 38.435 99.9192 37.4 100.669 36.08C101.449 34.76 101.839 33.26 101.839 31.58C101.839 29.9 101.449 28.415 100.669 27.125C99.9192 25.805 98.8542 24.785 97.4742 24.065C96.1242 23.315 94.5792 22.94 92.8392 22.94C91.1292 22.94 89.5842 23.3 88.2042 24.02C86.8542 24.74 85.7892 25.76 85.0092 27.08C84.2592 28.4 83.8842 29.9 83.8842 31.58C83.8842 33.26 84.2592 34.76 85.0092 36.08C85.7892 37.4 86.8542 38.435 88.2042 39.185C89.5842 39.905 91.1292 40.265 92.8392 40.265ZM67.3467 70.38V82.755H83.6367V85.635H67.3467V99H64.0167V67.5H85.6167V70.38H67.3467ZM100.702 99.225C98.4223 99.225 96.3673 98.715 94.5373 97.695C92.7073 96.645 91.2673 95.205 90.2173 93.375C89.1673 91.545 88.6423 89.475 88.6423 87.165C88.6423 84.855 89.1673 82.785 90.2173 80.955C91.2673 79.125 92.7073 77.7 94.5373 76.68C96.3673 75.66 98.4223 75.15 100.702 75.15C102.982 75.15 105.037 75.66 106.867 76.68C108.697 77.7 110.122 79.125 111.142 80.955C112.192 82.785 112.717 84.855 112.717 87.165C112.717 89.475 112.192 91.545 111.142 93.375C110.122 95.205 108.697 96.645 106.867 97.695C105.037 98.715 102.982 99.225 100.702 99.225ZM100.702 96.39C102.382 96.39 103.882 96.015 105.202 95.265C106.552 94.485 107.602 93.39 108.352 91.98C109.102 90.57 109.477 88.965 109.477 87.165C109.477 85.365 109.102 83.76 108.352 82.35C107.602 80.94 106.552 79.86 105.202 79.11C103.882 78.33 102.382 77.94 100.702 77.94C99.0223 77.94 97.5073 78.33 96.1573 79.11C94.8373 79.86 93.7873 80.94 93.0073 82.35C92.2573 83.76 91.8823 85.365 91.8823 87.165C91.8823 88.965 92.2573 90.57 93.0073 91.98C93.7873 93.39 94.8373 94.485 96.1573 95.265C97.5073 96.015 99.0223 96.39 100.702 96.39ZM128.915 99.225C126.635 99.225 124.58 98.715 122.75 97.695C120.92 96.645 119.48 95.205 118.43 93.375C117.38 91.545 116.855 89.475 116.855 87.165C116.855 84.855 117.38 82.785 118.43 80.955C119.48 79.125 120.92 77.7 122.75 76.68C124.58 75.66 126.635 75.15 128.915 75.15C131.195 75.15 133.25 75.66 135.08 76.68C136.91 77.7 138.335 79.125 139.355 80.955C140.405 82.785 140.93 84.855 140.93 87.165C140.93 89.475 140.405 91.545 139.355 93.375C138.335 95.205 136.91 96.645 135.08 97.695C133.25 98.715 131.195 99.225 128.915 99.225ZM128.915 96.39C130.595 96.39 132.095 96.015 133.415 95.265C134.765 94.485 135.815 93.39 136.565 91.98C137.315 90.57 137.69 88.965 137.69 87.165C137.69 85.365 137.315 83.76 136.565 82.35C135.815 80.94 134.765 79.86 133.415 79.11C132.095 78.33 130.595 77.94 128.915 77.94C127.235 77.94 125.72 78.33 124.37 79.11C123.05 79.86 122 80.94 121.22 82.35C120.47 83.76 120.095 85.365 120.095 87.165C120.095 88.965 120.47 90.57 121.22 91.98C122 93.39 123.05 94.485 124.37 95.265C125.72 96.015 127.235 96.39 128.915 96.39ZM169.053 65.61V99H165.993V94.32C165.033 95.91 163.758 97.125 162.168 97.965C160.608 98.805 158.838 99.225 156.858 99.225C154.638 99.225 152.628 98.715 150.828 97.695C149.028 96.675 147.618 95.25 146.598 93.42C145.578 91.59 145.068 89.505 145.068 87.165C145.068 84.825 145.578 82.74 146.598 80.91C147.618 79.08 149.028 77.67 150.828 76.68C152.628 75.66 154.638 75.15 156.858 75.15C158.778 75.15 160.503 75.555 162.033 76.365C163.593 77.145 164.868 78.3 165.858 79.83V65.61H169.053ZM157.128 96.39C158.778 96.39 160.263 96.015 161.583 95.265C162.933 94.485 163.983 93.39 164.733 91.98C165.513 90.57 165.903 88.965 165.903 87.165C165.903 85.365 165.513 83.76 164.733 82.35C163.983 80.94 162.933 79.86 161.583 79.11C160.263 78.33 158.778 77.94 157.128 77.94C155.448 77.94 153.933 78.33 152.583 79.11C151.263 79.86 150.213 80.94 149.433 82.35C148.683 83.76 148.308 85.365 148.308 87.165C148.308 88.965 148.683 90.57 149.433 91.98C150.213 93.39 151.263 94.485 152.583 95.265C153.933 96.015 155.448 96.39 157.128 96.39Z" fill="#D78100"/>
<path d="M49.8333 95.375C49.8333 94.8114 49.6138 94.2709 49.2231 93.8724C48.8324 93.4739 48.3025 93.25 47.75 93.25H36.375L34.9791 91.125H47.75C48.3025 91.125 48.8324 90.9011 49.2231 90.5026C49.6138 90.1041 49.8333 89.5636 49.8333 89C49.8333 88.4364 49.6138 87.8959 49.2231 87.4974C48.8324 87.0989 48.3025 86.875 47.75 86.875H34.9791L36.375 84.75H47.75C48.3025 84.75 48.8324 84.5261 49.2231 84.1276C49.6138 83.7291 49.8333 83.1886 49.8333 82.625C49.8333 82.0614 49.6138 81.5209 49.2231 81.1224C48.8324 80.7239 48.3025 80.5 47.75 80.5H35.25C34.9068 80.5018 34.5695 80.59 34.2678 80.7569C33.9661 80.9237 33.7095 81.1639 33.5208 81.4562L29.9583 86.875H10.25C9.69744 86.875 9.16754 87.0989 8.77684 87.4974C8.38614 87.8959 8.16664 88.4364 8.16664 89C8.16664 89.5636 8.38614 90.1041 8.77684 90.5026C9.16754 90.9011 9.69744 91.125 10.25 91.125H29.9583L33.5208 96.5437C33.7095 96.8361 33.9661 97.0763 34.2678 97.2431C34.5695 97.41 34.9068 97.4982 35.25 97.5H47.75C48.3025 97.5 48.8324 97.2761 49.2231 96.8776C49.6138 96.4791 49.8333 95.9386 49.8333 95.375ZM49.8333 74.125C49.8333 71.3071 48.7358 68.6046 46.7823 66.612C44.8288 64.6194 42.1793 63.5 39.4166 63.5H26.9166C26.3641 63.5 25.8342 63.7239 25.4435 64.1224C25.0528 64.5209 24.8333 65.0614 24.8333 65.625V72H10.25C9.69744 72 9.16754 72.2239 8.77684 72.6224C8.38614 73.0209 8.16664 73.5614 8.16664 74.125C8.16664 74.6886 8.38614 75.2291 8.77684 75.6276C9.16754 76.0261 9.69744 76.25 10.25 76.25H47.75C48.3025 76.25 48.8324 76.0261 49.2231 75.6276C49.6138 75.2291 49.8333 74.6886 49.8333 74.125ZM29 72V67.75H39.4166C40.7097 67.7493 41.9711 68.1577 43.027 68.9189C44.083 69.68 44.8815 70.7565 45.3125 72H29Z" fill="white"/>
</svg>
